<svg width="79" height="79" viewBox="0 0 79 79" fill="none" xmlns="http://www.w3.org/2000/svg">
<g clip-path="url(#clip0)">
<line y1="-1.5" x2="93.775" y2="-1.5" transform="matrix(-0.5 0.866025 -0.507763 -0.861497 116.1 -0.894257)" stroke="#878C92" stroke-width="3"/>
<line y1="-1.5" x2="93.775" y2="-1.5" transform="matrix(-0.5 0.866025 -0.507763 -0.861497 100.212 -0.894257)" stroke="#878C92" stroke-width="3"/>
<line y1="-1.5" x2="93.775" y2="-1.5" transform="matrix(-0.5 0.866025 -0.507763 -0.861497 84.3247 -0.894257)" stroke="#878C92" stroke-width="3"/>
<line y1="-1.5" x2="93.775" y2="-1.5" transform="matrix(-0.5 0.866025 -0.507763 -0.861497 68.4373 -0.894257)" stroke="#878C92" stroke-width="3"/>
<line y1="-1.5" x2="93.775" y2="-1.5" transform="matrix(-0.5 0.866025 -0.507763 -0.861497 52.5498 -0.894257)" stroke="#878C92" stroke-width="3"/>
<line y1="-1.5" x2="93.775" y2="-1.5" transform="matrix(-0.5 0.866025 -0.507763 -0.861497 36.6624 -0.894257)" stroke="#878C92" stroke-width="3"/>
<line y1="-1.5" x2="93.775" y2="-1.5" transform="matrix(-0.5 0.866025 -0.507763 -0.861497 20.7749 -0.894257)" stroke="#878C92" stroke-width="3"/>
<line y1="-1.5" x2="93.775" y2="-1.5" transform="matrix(-0.5 0.866025 -0.507763 -0.861497 4.88745 -1)" stroke="#878C92" stroke-width="3"/>
</g>
<defs>
<clipPath id="clip0">
<rect width="79" height="79" fill="white"/>
</clipPath>
</defs>
</svg>
